<svg xmlns="http://www.w3.org/2000/svg" viewBox="0 0 1600 900" role="img" aria-labelledby="title desc">
  <title id="title">الشاشة والانتباه</title>
  <desc id="desc">هاتف مضاء وسط مساحة هادئة مع نقاط إشعارات تتلاشى، في تعبير عن الصراع بين التركيز والتشتت الرقمي.</desc>
  <defs>
    <linearGradient id="bg" x1="0" y1="0" x2="1" y2="1">
      <stop offset="0" stop-color="#10192d"/>
      <stop offset="0.58" stop-color="#17233d"/>
      <stop offset="1" stop-color="#0b1222"/>
    </linearGradient>
    <radialGradient id="glow" cx="50%" cy="45%" r="55%">
      <stop offset="0" stop-color="#6fe7df" stop-opacity=".22"/>
      <stop offset=".5" stop-color="#6fe7df" stop-opacity=".06"/>
      <stop offset="1" stop-color="#6fe7df" stop-opacity="0"/>
    </radialGradient>
    <linearGradient id="screen" x1="0" y1="0" x2="0" y2="1">
      <stop offset="0" stop-color="#27395e"/>
      <stop offset="1" stop-color="#121d35"/>
    </linearGradient>
    <filter id="blur"><feGaussianBlur stdDeviation="20"/></filter>
    <filter id="soft"><feGaussianBlur stdDeviation="7"/></filter>
  </defs>
  <rect width="1600" height="900" fill="url(#bg)"/>
  <circle cx="790" cy="420" r="470" fill="url(#glow)"/>
  <g opacity=".22">
    <path d="M120 690C420 520 520 300 830 240c270-52 432 14 650-128" fill="none" stroke="#6fe7df" stroke-width="2"/>
    <path d="M180 760C480 620 620 400 890 360c235-34 395 15 570-76" fill="none" stroke="#d6b36a" stroke-width="1.5"/>
  </g>
  <g transform="translate(620 145)">
    <rect x="0" y="0" width="360" height="610" rx="54" fill="#070d18" stroke="#3b4e73" stroke-width="7"/>
    <rect x="20" y="22" width="320" height="566" rx="39" fill="url(#screen)"/>
    <rect x="134" y="14" width="92" height="9" rx="5" fill="#51627f"/>
    <circle cx="180" cy="520" r="13" fill="#6fe7df" opacity=".8"/>
    <g opacity=".9">
      <rect x="62" y="100" width="236" height="22" rx="11" fill="#f1eadf" opacity=".82"/>
      <rect x="82" y="146" width="196" height="13" rx="7" fill="#8293ad" opacity=".8"/>
      <rect x="70" y="195" width="220" height="110" rx="24" fill="#263b5e"/>
      <circle cx="105" cy="236" r="17" fill="#d7ad5c"/>
      <rect x="138" y="222" width="116" height="12" rx="6" fill="#f1eadf" opacity=".72"/>
      <rect x="138" y="246" width="85" height="9" rx="4.5" fill="#8293ad"/>
      <rect x="70" y="332" width="220" height="20" rx="10" fill="#f1eadf" opacity=".62"/>
      <rect x="70" y="371" width="168" height="12" rx="6" fill="#8293ad"/>
      <rect x="70" y="402" width="192" height="12" rx="6" fill="#8293ad" opacity=".76"/>
    </g>
  </g>
  <g>
    <circle cx="1095" cy="250" r="24" fill="#d75f72" opacity=".92"/>
    <circle cx="1148" cy="340" r="13" fill="#d75f72" opacity=".62"/>
    <circle cx="1082" cy="430" r="8" fill="#d75f72" opacity=".36"/>
    <circle cx="505" cy="265" r="18" fill="#d7ad5c" opacity=".78"/>
    <circle cx="457" cy="352" r="10" fill="#d7ad5c" opacity=".46"/>
    <circle cx="512" cy="445" r="6" fill="#d7ad5c" opacity=".24"/>
  </g>
  <g filter="url(#soft)" opacity=".24">
    <circle cx="1180" cy="208" r="42" fill="#d75f72"/>
    <circle cx="420" cy="212" r="40" fill="#d7ad5c"/>
  </g>
  <g opacity=".66">
    <path d="M282 680h230" stroke="#f1eadf" stroke-width="4" stroke-linecap="round"/>
    <path d="M310 710h174" stroke="#8293ad" stroke-width="3" stroke-linecap="round"/>
  </g>
  <g transform="translate(1395 790)">
    <circle cx="0" cy="0" r="27" fill="#f1eadf" opacity=".94"/>
    <path d="M-8 6c15-18 31-17 46-4" fill="none" stroke="#17233d" stroke-width="4" stroke-linecap="round"/>
    <circle cx="42" cy="28" r="8" fill="#44d7cf"/>
  </g>
</svg>